<mxfile host="65bd71144e">
    <diagram id="rTUVYkPfi1ynnKNOIa_s" name="페이지-1">
        <mxGraphModel dx="2156" dy="1794" grid="1" gridSize="10" guides="1" tooltips="1" connect="1" arrows="1" fold="1" page="1" pageScale="1" pageWidth="827" pageHeight="1169" math="0" shadow="0">
            <root>
                <mxCell id="0"/>
                <mxCell id="1" parent="0"/>
                <mxCell id="2" value="" style="whiteSpace=wrap;html=1;aspect=fixed;" vertex="1" parent="1">
                    <mxGeometry x="380" y="360" width="380" height="380" as="geometry"/>
                </mxCell>
                <mxCell id="3" value="" style="whiteSpace=wrap;html=1;aspect=fixed;" vertex="1" parent="1">
                    <mxGeometry x="290" y="-30" width="330" height="330" as="geometry"/>
                </mxCell>
                <mxCell id="4" value="" style="shape=cylinder3;whiteSpace=wrap;html=1;boundedLbl=1;backgroundOutline=1;size=15;" vertex="1" parent="1">
                    <mxGeometry x="470" y="460" width="220" height="220" as="geometry"/>
                </mxCell>
                <mxCell id="5" value="" style="shape=cylinder3;whiteSpace=wrap;html=1;boundedLbl=1;backgroundOutline=1;size=15;" vertex="1" parent="1">
                    <mxGeometry x="380" y="70" width="130" height="130" as="geometry"/>
                </mxCell>
                <mxCell id="6" value="" style="whiteSpace=wrap;html=1;aspect=fixed;" vertex="1" parent="1">
                    <mxGeometry x="-40" y="360" width="380" height="380" as="geometry"/>
                </mxCell>
                <mxCell id="7" value="" style="shape=cylinder3;whiteSpace=wrap;html=1;boundedLbl=1;backgroundOutline=1;size=15;" vertex="1" parent="1">
                    <mxGeometry x="30" y="430" width="210" height="270" as="geometry"/>
                </mxCell>
                <mxCell id="8" value="기정" style="text;html=1;strokeColor=none;fillColor=none;align=center;verticalAlign=middle;whiteSpace=wrap;rounded=0;" vertex="1" parent="1">
                    <mxGeometry x="-20" y="370" width="60" height="30" as="geometry"/>
                </mxCell>
                <mxCell id="9" value="성규" style="text;html=1;strokeColor=none;fillColor=none;align=center;verticalAlign=middle;whiteSpace=wrap;rounded=0;" vertex="1" parent="1">
                    <mxGeometry x="460" y="360" width="60" height="30" as="geometry"/>
                </mxCell>
                <mxCell id="10" value="깃헙" style="text;html=1;strokeColor=none;fillColor=none;align=center;verticalAlign=middle;whiteSpace=wrap;rounded=0;" vertex="1" parent="1">
                    <mxGeometry x="290" y="-20" width="60" height="30" as="geometry"/>
                </mxCell>
                <mxCell id="13" style="edgeStyle=none;html=1;entryX=0.5;entryY=1;entryDx=0;entryDy=0;" edge="1" parent="1" source="11" target="12">
                    <mxGeometry relative="1" as="geometry"/>
                </mxCell>
                <mxCell id="11" value="작업공간&lt;br&gt;git init&lt;br&gt;.git&lt;br&gt;파일1 - 새로운작업&lt;br&gt;파일2" style="rounded=1;whiteSpace=wrap;html=1;" vertex="1" parent="1">
                    <mxGeometry x="80" y="600" width="120" height="60" as="geometry"/>
                </mxCell>
                <mxCell id="16" style="edgeStyle=none;html=1;entryX=0;entryY=0.5;entryDx=0;entryDy=0;entryPerimeter=0;" edge="1" parent="1" source="12" target="5">
                    <mxGeometry relative="1" as="geometry"/>
                </mxCell>
                <mxCell id="12" value="스테이지" style="rounded=1;whiteSpace=wrap;html=1;" vertex="1" parent="1">
                    <mxGeometry x="80" y="490" width="120" height="60" as="geometry"/>
                </mxCell>
                <mxCell id="14" value="add" style="text;html=1;strokeColor=none;fillColor=none;align=center;verticalAlign=middle;whiteSpace=wrap;rounded=0;" vertex="1" parent="1">
                    <mxGeometry x="150" y="555" width="60" height="30" as="geometry"/>
                </mxCell>
                <mxCell id="15" value="commit&lt;br&gt;hash" style="text;html=1;strokeColor=none;fillColor=none;align=center;verticalAlign=middle;whiteSpace=wrap;rounded=0;" vertex="1" parent="1">
                    <mxGeometry x="150" y="470" width="60" height="30" as="geometry"/>
                </mxCell>
                <mxCell id="17" value="push" style="text;html=1;strokeColor=none;fillColor=none;align=center;verticalAlign=middle;whiteSpace=wrap;rounded=0;" vertex="1" parent="1">
                    <mxGeometry x="210" y="300" width="60" height="30" as="geometry"/>
                </mxCell>
                <mxCell id="18" value="hash" style="text;html=1;strokeColor=none;fillColor=none;align=center;verticalAlign=middle;whiteSpace=wrap;rounded=0;" vertex="1" parent="1">
                    <mxGeometry x="414" y="120" width="60" height="30" as="geometry"/>
                </mxCell>
                <mxCell id="19" style="edgeStyle=none;html=1;entryX=0;entryY=0.5;entryDx=0;entryDy=0;exitX=0.5;exitY=1;exitDx=0;exitDy=0;exitPerimeter=0;" edge="1" parent="1" source="5" target="20">
                    <mxGeometry relative="1" as="geometry">
                        <mxPoint x="168.70129870129858" y="500" as="sourcePoint"/>
                        <mxPoint x="390" y="145" as="targetPoint"/>
                        <Array as="points">
                            <mxPoint x="410" y="560"/>
                        </Array>
                    </mxGeometry>
                </mxCell>
                <mxCell id="23" style="edgeStyle=none;html=1;entryX=0.5;entryY=1;entryDx=0;entryDy=0;" edge="1" parent="1" source="20" target="21">
                    <mxGeometry relative="1" as="geometry"/>
                </mxCell>
                <mxCell id="20" value="git clone&lt;br&gt;파일1 &lt;br&gt;파일2&lt;br&gt;파일3" style="rounded=1;whiteSpace=wrap;html=1;" vertex="1" parent="1">
                    <mxGeometry x="520" y="600" width="120" height="60" as="geometry"/>
                </mxCell>
                <mxCell id="25" style="edgeStyle=none;html=1;entryX=1;entryY=0.5;entryDx=0;entryDy=0;entryPerimeter=0;" edge="1" parent="1" source="21" target="5">
                    <mxGeometry relative="1" as="geometry"/>
                </mxCell>
                <mxCell id="21" value="스테이지" style="rounded=1;whiteSpace=wrap;html=1;" vertex="1" parent="1">
                    <mxGeometry x="520" y="510" width="120" height="60" as="geometry"/>
                </mxCell>
                <mxCell id="24" value="commit" style="text;html=1;strokeColor=none;fillColor=none;align=center;verticalAlign=middle;whiteSpace=wrap;rounded=0;" vertex="1" parent="1">
                    <mxGeometry x="590" y="460" width="60" height="30" as="geometry"/>
                </mxCell>
                <mxCell id="26" value="hash" style="text;html=1;strokeColor=none;fillColor=none;align=center;verticalAlign=middle;whiteSpace=wrap;rounded=0;" vertex="1" parent="1">
                    <mxGeometry x="590" y="480" width="60" height="30" as="geometry"/>
                </mxCell>
                <mxCell id="27" value="push" style="text;html=1;strokeColor=none;fillColor=none;align=center;verticalAlign=middle;whiteSpace=wrap;rounded=0;" vertex="1" parent="1">
                    <mxGeometry x="550" y="300" width="60" height="30" as="geometry"/>
                </mxCell>
                <mxCell id="29" value="pull&lt;br&gt;fetch + merge" style="text;html=1;strokeColor=none;fillColor=none;align=center;verticalAlign=middle;whiteSpace=wrap;rounded=0;" vertex="1" parent="1">
                    <mxGeometry x="340" y="320" width="100" height="30" as="geometry"/>
                </mxCell>
                <mxCell id="28" style="edgeStyle=none;html=1;entryX=1;entryY=0.5;entryDx=0;entryDy=0;" edge="1" parent="1" source="5" target="11">
                    <mxGeometry relative="1" as="geometry"/>
                </mxCell>
                <mxCell id="qj80HUQQPZmClR5k2g13-29" value="add" style="text;html=1;strokeColor=none;fillColor=none;align=center;verticalAlign=middle;whiteSpace=wrap;rounded=0;" vertex="1" parent="1">
                    <mxGeometry x="590" y="570" width="60" height="30" as="geometry"/>
                </mxCell>
            </root>
        </mxGraphModel>
    </diagram>
    <diagram id="KSecqnO0eowmflhj7Az8" name="페이지-2">
        <mxGraphModel dx="2441" dy="759" grid="1" gridSize="10" guides="1" tooltips="1" connect="1" arrows="1" fold="1" page="1" pageScale="1" pageWidth="827" pageHeight="1169" math="0" shadow="0">
            <root>
                <mxCell id="0"/>
                <mxCell id="1" parent="0"/>
                <mxCell id="pxK4bZzgpN9_uHymQfvI-1" style="edgeStyle=none;html=1;exitX=1;exitY=0.5;exitDx=0;exitDy=0;" edge="1" parent="1" source="U8RaWs223oH9KvubxbfR-1" target="U8RaWs223oH9KvubxbfR-2">
                    <mxGeometry relative="1" as="geometry"/>
                </mxCell>
                <mxCell id="U8RaWs223oH9KvubxbfR-1" value="" style="ellipse;whiteSpace=wrap;html=1;aspect=fixed;" vertex="1" parent="1">
                    <mxGeometry x="-310" y="480" width="80" height="80" as="geometry"/>
                </mxCell>
                <mxCell id="pxK4bZzgpN9_uHymQfvI-2" style="edgeStyle=none;html=1;exitX=1;exitY=0.5;exitDx=0;exitDy=0;entryX=0;entryY=0.5;entryDx=0;entryDy=0;" edge="1" parent="1" source="U8RaWs223oH9KvubxbfR-2" target="pxK4bZzgpN9_uHymQfvI-37">
                    <mxGeometry relative="1" as="geometry">
                        <mxPoint x="-20" y="520" as="targetPoint"/>
                    </mxGeometry>
                </mxCell>
                <mxCell id="pxK4bZzgpN9_uHymQfvI-6" style="edgeStyle=none;html=1;exitX=1;exitY=0;exitDx=0;exitDy=0;" edge="1" parent="1" source="U8RaWs223oH9KvubxbfR-2" target="U8RaWs223oH9KvubxbfR-4">
                    <mxGeometry relative="1" as="geometry"/>
                </mxCell>
                <mxCell id="pxK4bZzgpN9_uHymQfvI-19" style="edgeStyle=none;html=1;exitX=0.5;exitY=1;exitDx=0;exitDy=0;entryX=0;entryY=0.5;entryDx=0;entryDy=0;fontSize=19;" edge="1" parent="1" source="U8RaWs223oH9KvubxbfR-2" target="pxK4bZzgpN9_uHymQfvI-18">
                    <mxGeometry relative="1" as="geometry"/>
                </mxCell>
                <mxCell id="pxK4bZzgpN9_uHymQfvI-23" style="edgeStyle=none;html=1;exitX=0.5;exitY=1;exitDx=0;exitDy=0;entryX=-0.012;entryY=0.646;entryDx=0;entryDy=0;entryPerimeter=0;fontSize=19;" edge="1" parent="1" source="U8RaWs223oH9KvubxbfR-2" target="pxK4bZzgpN9_uHymQfvI-21">
                    <mxGeometry relative="1" as="geometry"/>
                </mxCell>
                <mxCell id="U8RaWs223oH9KvubxbfR-2" value="" style="ellipse;whiteSpace=wrap;html=1;aspect=fixed;" vertex="1" parent="1">
                    <mxGeometry x="-170" y="480" width="80" height="80" as="geometry"/>
                </mxCell>
                <mxCell id="pxK4bZzgpN9_uHymQfvI-8" style="edgeStyle=none;html=1;" edge="1" parent="1" source="U8RaWs223oH9KvubxbfR-4" target="pxK4bZzgpN9_uHymQfvI-7">
                    <mxGeometry relative="1" as="geometry"/>
                </mxCell>
                <mxCell id="U8RaWs223oH9KvubxbfR-4" value="" style="ellipse;whiteSpace=wrap;html=1;aspect=fixed;" vertex="1" parent="1">
                    <mxGeometry x="-40" y="360" width="80" height="80" as="geometry"/>
                </mxCell>
                <mxCell id="pxK4bZzgpN9_uHymQfvI-4" value="" style="ellipse;whiteSpace=wrap;html=1;aspect=fixed;" vertex="1" parent="1">
                    <mxGeometry x="500" y="480" width="80" height="80" as="geometry"/>
                </mxCell>
                <mxCell id="pxK4bZzgpN9_uHymQfvI-36" style="edgeStyle=none;html=1;entryX=0;entryY=0;entryDx=0;entryDy=0;fontSize=19;" edge="1" parent="1" source="pxK4bZzgpN9_uHymQfvI-7" target="pxK4bZzgpN9_uHymQfvI-37">
                    <mxGeometry relative="1" as="geometry"/>
                </mxCell>
                <mxCell id="pxK4bZzgpN9_uHymQfvI-7" value="" style="ellipse;whiteSpace=wrap;html=1;aspect=fixed;" vertex="1" parent="1">
                    <mxGeometry x="130" y="360" width="80" height="80" as="geometry"/>
                </mxCell>
                <mxCell id="pxK4bZzgpN9_uHymQfvI-9" value="master&lt;br&gt;SEAMSBP" style="text;html=1;strokeColor=none;fillColor=none;align=center;verticalAlign=middle;whiteSpace=wrap;rounded=0;fontSize=19;" vertex="1" parent="1">
                    <mxGeometry x="-440" y="465" width="140" height="110" as="geometry"/>
                </mxCell>
                <mxCell id="pxK4bZzgpN9_uHymQfvI-15" value="master&lt;br&gt;인입서비" style="text;html=1;strokeColor=none;fillColor=none;align=center;verticalAlign=middle;whiteSpace=wrap;rounded=0;fontSize=19;" vertex="1" parent="1">
                    <mxGeometry x="-440" y="340" width="140" height="110" as="geometry"/>
                </mxCell>
                <mxCell id="pxK4bZzgpN9_uHymQfvI-16" value="서비스큐레이팅&lt;br&gt;master" style="text;html=1;strokeColor=none;fillColor=none;align=center;verticalAlign=middle;whiteSpace=wrap;rounded=0;fontSize=19;" vertex="1" parent="1">
                    <mxGeometry x="-440" y="590" width="140" height="110" as="geometry"/>
                </mxCell>
                <mxCell id="pxK4bZzgpN9_uHymQfvI-17" value="master&lt;br&gt;상권분석" style="text;html=1;strokeColor=none;fillColor=none;align=center;verticalAlign=middle;whiteSpace=wrap;rounded=0;fontSize=19;" vertex="1" parent="1">
                    <mxGeometry x="-430" y="930" width="140" height="110" as="geometry"/>
                </mxCell>
                <mxCell id="pxK4bZzgpN9_uHymQfvI-24" style="edgeStyle=none;html=1;fontSize=19;entryX=0;entryY=0.5;entryDx=0;entryDy=0;" edge="1" parent="1" source="pxK4bZzgpN9_uHymQfvI-18" target="pxK4bZzgpN9_uHymQfvI-25">
                    <mxGeometry relative="1" as="geometry">
                        <mxPoint x="300" y="680" as="targetPoint"/>
                    </mxGeometry>
                </mxCell>
                <mxCell id="pxK4bZzgpN9_uHymQfvI-27" style="edgeStyle=none;html=1;entryX=0;entryY=0.5;entryDx=0;entryDy=0;fontSize=19;" edge="1" parent="1" source="pxK4bZzgpN9_uHymQfvI-18" target="pxK4bZzgpN9_uHymQfvI-26">
                    <mxGeometry relative="1" as="geometry"/>
                </mxCell>
                <mxCell id="pxK4bZzgpN9_uHymQfvI-31" style="edgeStyle=none;html=1;entryX=0;entryY=0.5;entryDx=0;entryDy=0;fontSize=19;" edge="1" parent="1" source="pxK4bZzgpN9_uHymQfvI-18" target="pxK4bZzgpN9_uHymQfvI-30">
                    <mxGeometry relative="1" as="geometry"/>
                </mxCell>
                <mxCell id="pxK4bZzgpN9_uHymQfvI-18" value="" style="ellipse;whiteSpace=wrap;html=1;aspect=fixed;" vertex="1" parent="1">
                    <mxGeometry x="-40" y="640" width="80" height="80" as="geometry"/>
                </mxCell>
                <mxCell id="pxK4bZzgpN9_uHymQfvI-21" value="" style="ellipse;whiteSpace=wrap;html=1;aspect=fixed;" vertex="1" parent="1">
                    <mxGeometry x="-40" y="1040" width="80" height="80" as="geometry"/>
                </mxCell>
                <mxCell id="pxK4bZzgpN9_uHymQfvI-28" style="edgeStyle=none;html=1;fontSize=19;" edge="1" parent="1" source="pxK4bZzgpN9_uHymQfvI-25" target="pxK4bZzgpN9_uHymQfvI-26">
                    <mxGeometry relative="1" as="geometry"/>
                </mxCell>
                <mxCell id="pxK4bZzgpN9_uHymQfvI-25" value="" style="ellipse;whiteSpace=wrap;html=1;aspect=fixed;" vertex="1" parent="1">
                    <mxGeometry x="80" y="780" width="80" height="80" as="geometry"/>
                </mxCell>
                <mxCell id="pxK4bZzgpN9_uHymQfvI-34" style="edgeStyle=none;html=1;entryX=0;entryY=0.5;entryDx=0;entryDy=0;fontSize=19;" edge="1" parent="1" source="pxK4bZzgpN9_uHymQfvI-26" target="pxK4bZzgpN9_uHymQfvI-32">
                    <mxGeometry relative="1" as="geometry"/>
                </mxCell>
                <mxCell id="pxK4bZzgpN9_uHymQfvI-26" value="" style="ellipse;whiteSpace=wrap;html=1;aspect=fixed;" vertex="1" parent="1">
                    <mxGeometry x="190" y="640" width="80" height="80" as="geometry"/>
                </mxCell>
                <mxCell id="pxK4bZzgpN9_uHymQfvI-29" value="요구사항&lt;br&gt;온라인도움말" style="text;html=1;strokeColor=none;fillColor=none;align=center;verticalAlign=middle;whiteSpace=wrap;rounded=0;fontSize=19;" vertex="1" parent="1">
                    <mxGeometry x="-340" y="760" width="140" height="110" as="geometry"/>
                </mxCell>
                <mxCell id="pxK4bZzgpN9_uHymQfvI-33" style="edgeStyle=none;html=1;entryX=0.5;entryY=1;entryDx=0;entryDy=0;fontSize=19;" edge="1" parent="1" source="pxK4bZzgpN9_uHymQfvI-30" target="pxK4bZzgpN9_uHymQfvI-32">
                    <mxGeometry relative="1" as="geometry"/>
                </mxCell>
                <mxCell id="pxK4bZzgpN9_uHymQfvI-30" value="" style="ellipse;whiteSpace=wrap;html=1;aspect=fixed;" vertex="1" parent="1">
                    <mxGeometry x="80" y="900" width="80" height="80" as="geometry"/>
                </mxCell>
                <mxCell id="pxK4bZzgpN9_uHymQfvI-35" style="edgeStyle=none;html=1;fontSize=19;" edge="1" parent="1" source="pxK4bZzgpN9_uHymQfvI-32" target="pxK4bZzgpN9_uHymQfvI-4">
                    <mxGeometry relative="1" as="geometry"/>
                </mxCell>
                <mxCell id="pxK4bZzgpN9_uHymQfvI-32" value="" style="ellipse;whiteSpace=wrap;html=1;aspect=fixed;" vertex="1" parent="1">
                    <mxGeometry x="370" y="640" width="80" height="80" as="geometry"/>
                </mxCell>
                <mxCell id="pxK4bZzgpN9_uHymQfvI-38" style="edgeStyle=none;html=1;fontSize=19;" edge="1" parent="1" source="pxK4bZzgpN9_uHymQfvI-37" target="pxK4bZzgpN9_uHymQfvI-4">
                    <mxGeometry relative="1" as="geometry"/>
                </mxCell>
                <mxCell id="pxK4bZzgpN9_uHymQfvI-37" value="" style="ellipse;whiteSpace=wrap;html=1;aspect=fixed;" vertex="1" parent="1">
                    <mxGeometry x="300" y="480" width="80" height="80" as="geometry"/>
                </mxCell>
                <mxCell id="pxK4bZzgpN9_uHymQfvI-39" value="" style="ellipse;whiteSpace=wrap;html=1;aspect=fixed;" vertex="1" parent="1">
                    <mxGeometry x="-40" y="220" width="80" height="80" as="geometry"/>
                </mxCell>
            </root>
        </mxGraphModel>
    </diagram>
</mxfile>